# xmcd
#
# Track frame offsets:
#	150
#	9875
#	29152
#	46613
#	61898
#	78867
#	98900
#	117592
#	132732
#	153402
#	170731
#
# Disc length: 2395 seconds
#
# Revision: 0
# Processed by: cddbd v1.5.2PL0 Copyright (c) Steve Scherf et al.
# Submitted via: EasyCDDAExtractor 15.2.5.1
#
DISCID=8c09590b
DTITLE=ARCHIE WHITE WATER - ARCHIE WHITEWATER (1970)
DYEAR=1900
DGENRE=
TTITLE0=don't be short
TTITLE1=northstar
TTITLE2=mist of the early morning
TTITLE3=life is a river
TTITLE4=friends and neighbors
TTITLE5=country to the city
TTITLE6=home again
TTITLE7=cross country
TTITLE8=lament for the walking dead
TTITLE9=seacoast
TTITLE10=hulk
EXTD=
EXTT0=
EXTT1=
EXTT2=
EXTT3=
EXTT4=
EXTT5=
EXTT6=
EXTT7=
EXTT8=
EXTT9=
EXTT10=
PLAYORDER=
